# xmcd CD database file
#
# Track frame offsets:
#	150
#	13945
#	27358
#	44003
#	59885
#	81945
#	96925
#	109108
#	120228
#	134993
#	153655
#	168370
#
# Disc length: 2430 seconds
#
# Revision: 3
# Processed by: cddbd v1.5PL3 Copyright (c) Steve Scherf et al.
# Submitted via: CDex 1.51
#
DISCID=ae097c0c
DTITLE=Steve James - Art and Grit
DYEAR=1995
DGENRE=Blues
TTITLE0=Ooze It To Me, Mama
TTITLE1=Wet Laundry Blues
TTITLE2=Hot Time on the Old Town Tonight
TTITLE3=Blues Widow
TTITLE4=Downbound Train
TTITLE5=Viola Lee Blues
TTITLE6=Liberty
TTITLE7=Monkey Man Swing
TTITLE8=Farewell the Roses
TTITLE9=Juanita Stomp
TTITLE10=Lookit th' Dog
TTITLE11=Buddy Bolden's Blues
EXTD=YEAR: 1995
EXTT0=
EXTT1=
EXTT2=
EXTT3=
EXTT4=
EXTT5=
EXTT6=
EXTT7=
EXTT8=
EXTT9=
EXTT10=
EXTT11=
PLAYORDER=
